<svg data-v-fde0c5aa="" xmlns="http://www.w3.org/2000/svg" viewBox="0 0 300 300" class="iconAbove"><!----><defs data-v-fde0c5aa=""><!----></defs><rect data-v-fde0c5aa="" fill="transparent" x="0" y="0" width="300px" height="300px" class="logo-background-square"></rect><defs data-v-fde0c5aa=""><!----></defs><g data-v-fde0c5aa="" id="d3490267-b141-46cb-9240-e447d8e92ba6" fill="#000000" transform="matrix(5.085598915961441,0,0,5.085598915961441,77.2505083801725,174.20594201972602)"><path d="M0.48 9.18C0.48 11.98 2.73 14.15 5.63 14.15C6.97 14.15 8.44 13.64 9.44 12.88L9.44 9.27L7.99 9.27L7.99 12.00C7.29 12.42 6.47 12.67 5.74 12.67C3.74 12.67 2.16 11.14 2.16 9.18C2.16 7.24 3.72 5.71 5.73 5.71C6.75 5.71 7.80 6.13 8.55 6.83L9.49 5.61C8.53 4.77 7.13 4.24 5.73 4.24C2.76 4.24 0.48 6.38 0.48 9.18ZM10.42 6.64L13.50 13.97L13.24 14.53C12.99 15.09 12.60 15.36 12.11 15.36C11.77 15.36 11.49 15.25 11.14 14.99L10.46 16.24C10.98 16.67 11.51 16.87 12.18 16.87C13.30 16.87 14.14 16.28 14.60 15.11L17.99 6.64L16.38 6.64L14.31 12.28L12.08 6.64ZM18.44 8.12L19.42 8.12L19.42 14.08L21.01 14.08L21.01 8.12L22.96 8.12L22.96 6.92L21.01 6.92L21.01 6.03C21.01 5.33 21.48 5.03 22.02 5.03C22.36 5.03 22.74 5.15 23.04 5.38L23.66 4.14C23.18 3.79 22.58 3.63 21.98 3.63C20.69 3.63 19.42 4.45 19.42 6.19L19.42 6.92L18.44 6.92ZM23.16 8.12L24.21 8.12L24.21 11.98C24.21 13.51 25.17 14.15 26.29 14.15C26.92 14.15 27.54 13.96 28.13 13.61L27.72 12.38C27.29 12.59 26.94 12.70 26.60 12.70C26.10 12.70 25.80 12.46 25.80 11.69L25.80 8.12L28 8.12L28 6.92L25.80 6.92L25.80 4.87L24.21 4.87L24.21 6.92L23.16 6.92Z"></path></g><defs data-v-fde0c5aa=""><linearGradient data-v-fde0c5aa="" gradientTransform="rotate(25)" id="d603c1ed-c2e1-4e44-95d7-52ae0e78e19a" x1="0%" y1="0%" x2="100%" y2="0%"><stop data-v-fde0c5aa="" offset="0%" stop-color="#177775" stop-opacity="1"></stop><stop data-v-fde0c5aa="" offset="100%" stop-color="#28D2BF" stop-opacity="1"></stop></linearGradient></defs><g data-v-fde0c5aa="" id="8879a513-bd9e-401b-9b71-48a71b67880f" stroke="none" fill="url(#d603c1ed-c2e1-4e44-95d7-52ae0e78e19a)" transform="matrix(1.3715903656200603,0,0,1.3715903656200603,81.42253928244027,38.75439648077948)"><path d="M84.279 44.348v14.401c0 2.332-.59 4.742-2.445 6.904-1.926 2.244-10.285 7.457-13.275 9.225-2.051 1.211-3.502-1.373-2.014-2.509 1.531-1.169 9.602-6.176 12.123-7.907 4.625-3.179.176-10.148-5.455-6.852-2.436 1.426-5.041 2.861-10.354 5.957-5.115 2.979-8.521 6.788-9.555 16.846-.514 5.006 2.531 18.678 2.531 18.678h17.186c0-11.957 14.049-21.873 17.371-27.914 2.104-3.826 2.402-5.43 2.402-8.769v-18.06c.001-6.57-8.515-6.426-8.515 0zM37.139 63.567c-5.313-3.095-7.917-4.53-10.354-5.957-5.631-3.298-10.08 3.673-5.456 6.851 2.522 1.733 10.592 6.738 12.124 7.907 1.487 1.136.037 3.72-2.013 2.509-2.99-1.767-11.351-6.979-13.277-9.223-1.855-2.162-2.444-4.573-2.444-6.906v-14.4c0-6.426-8.516-6.57-8.516 0v18.059c0 3.341.299 4.943 2.402 8.77 3.321 6.042 17.372 15.958 17.372 27.913l17.185.001s3.044-13.672 2.53-18.678c-1.032-10.058-4.438-13.866-9.553-16.846zM21.378 44.062c0 1.535.924 3.309 2.101 4.042l23.301 13.54V37.288L21.378 22.666v21.396zM53.246 61.645l23.301-13.54c1.178-.733 2.102-2.507 2.102-4.042V22.666L53.246 37.288v24.357zM52.263 1.342c-1.226-.65-3.223-.561-4.551.209L22.572 15.81l27.441 15.793L77.4 15.843 52.263 1.342z"></path></g><!----></svg>